HIERARCHY
ROOT Hips
{
	OFFSET 0.000000 0.000000 0.000000
	CHANNELS 6 Xposition Yposition Zposition Zrotation Yrotation Xrotation 
	JOINT LHipJoint
	{
		OFFSET 0.000000 0.000000 0.000000
		CHANNELS 3 Zrotation Yrotation Xrotation
		JOINT LeftUpLeg
		{
			OFFSET 1.363060 -1.794630 0.839290
			CHANNELS 3 Zrotation Yrotation Xrotation
			JOINT LeftLeg
			{
				OFFSET 2.448110 -6.726130 0.000000
				CHANNELS 3 Zrotation Yrotation Xrotation
				JOINT LeftFoot
				{
					OFFSET 2.562200 -7.039590 0.000000
					CHANNELS 3 Zrotation Yrotation Xrotation
					JOINT LeftToeBase
					{
						OFFSET 0.157640 -0.433110 2.322550
						CHANNELS 3 Zrotation Yrotation Xrotation
						End Site
						{
							OFFSET 0.000000 0.000000 0.000000
						}
					}
				}
			}
		}
	}
	JOINT RHipJoint
	{
		OFFSET 0.000000 0.000000 0.000000
		CHANNELS 3 Zrotation Yrotation Xrotation
		JOINT RightUpLeg
		{
			OFFSET -1.305520 -1.794630 0.839290
			CHANNELS 3 Zrotation Yrotation Xrotation
			JOINT RightLeg
			{
				OFFSET -2.542530 -6.985550 0.000000
				CHANNELS 3 Zrotation Yrotation Xrotation
				JOINT RightFoot
				{
					OFFSET -2.568260 -7.056230 0.000000
					CHANNELS 3 Zrotation Yrotation Xrotation
					JOINT RightToeBase
					{
						OFFSET -0.164730 -0.452590 2.363150
						CHANNELS 3 Zrotation Yrotation Xrotation
						End Site
						{
							OFFSET 0.000000 0.000000 0.000000
						}
					}
				}
			}
		}
	}
}
MOTION
Frames: 16
Frame Time: 0.008333
-13.388496 16.628372 -0.645727 0.857554 79.400684 21.992946 -9.141146 -1.395733 -0.339832 -10.897663 2.890407 -46.294779 -2.863427 0.174935 12.079058 0.039925 0.999340 11.451593 0.800500 -0.000000 -22.634399 10.137325 -1.811011 -2.524002 5.325969 -1.453233 -5.088278 2.847414 -1.460437 24.394870 0.894603 10.569216 -10.656909 -0.498600 0.000000 -58.844700
-13.244848 16.649610 -0.649621 2.209102 79.209958 23.477309 -9.069777 -1.331211 -0.360625 -11.228958 2.690448 -46.300621 -2.844070 0.222167 12.996169 0.097580 1.448314 10.989676 0.942999 -0.000000 -22.331601 10.382033 -1.868779 -2.536820 4.551767 -1.792529 -6.310050 2.665482 -1.767030 26.743783 0.969977 11.013792 -9.258191 -0.346501 0.000000 -61.619899
-13.105200 16.674953 -0.655125 3.310462 79.027085 24.732871 -8.990804 -1.276480 -0.363569 -11.456275 2.380741 -46.205378 -2.819587 0.244164 13.782095 0.166992 1.951084 10.260687 1.087401 0.000000 -22.173000 10.613393 -1.908728 -2.553798 3.854373 -2.047926 -7.612948 2.451798 -2.070768 29.167142 1.021620 11.354831 -7.652106 -0.124300 -0.000000 -64.199700
-12.969497 16.703735 -0.662789 4.111747 78.844363 25.706204 -8.912463 -1.232496 -0.355362 -11.584668 2.005317 -46.016938 -2.791591 0.244770 14.424800 0.245859 2.475347 9.345724 1.217600 0.000000 -22.113200 10.822448 -1.929795 -2.569916 3.254623 -2.190964 -8.970580 2.206448 -2.363992 31.629165 1.046172 11.583036 -5.833255 0.169900 0.000001 -66.525200
-12.837569 16.735175 -0.672994 4.589496 78.657620 26.367810 -8.842230 -1.199436 -0.343321 -11.626557 1.609768 -45.744703 -2.761533 0.228382 14.917752 0.330955 2.993052 8.331973 1.322800 0.000000 -22.099600 11.003188 -1.931919 -2.580489 2.764085 -2.205635 -10.356583 1.932475 -2.639275 34.094015 1.041491 11.700962 -3.808008 0.531800 0.000001 -68.526000
-12.709105 16.768569 -0.685880 4.741178 78.464837 26.708239 -8.786165 -1.176659 -0.334752 -11.598211 1.238290 -45.400857 -2.730626 0.199981 15.262990 0.418076 3.480282 7.302198 1.398700 0.000001 -22.082400 11.152240 -1.915583 -2.581792 2.387038 -2.087632 -11.744989 1.636120 -2.889755 36.526769 1.006627 11.719045 -1.598428 0.951000 0.000000 -70.116400
-12.583677 16.803182 -0.701306 4.596772 78.266378 26.750724 -8.747253 -1.162688 -0.335874 -11.519961 0.923808 -44.995703 -2.699932 0.163894 15.466065 0.502930 3.922768 6.328832 1.447700 -0.000000 -22.024000 11.270119 -1.881374 -2.572091 2.116777 -1.846314 -13.112924 1.326611 -3.110376 38.896119 0.942291 11.654376 0.755220 1.411600 -0.000000 -71.207300
-12.460790 16.838401 -0.719086 4.191593 78.064254 26.523373 -8.727206 -1.155594 -0.351258 -11.410028 0.693184 -44.541407 -2.670267 0.124591 15.543711 0.581104 4.308115 5.463648 1.474400 0.000000 -21.902000 11.358343 -1.830922 -2.550748 1.944974 -1.498949 -14.438720 1.014979 -3.297917 41.174669 0.850677 11.519437 3.194496 1.892200 -0.000001 -71.706101
-12.339972 16.873626 -0.738797 3.577315 77.862115 26.070422 -8.725647 -1.153071 -0.383318 -11.285400 0.561010 -44.048914 -2.642443 0.085737 15.517945 0.649105 4.629251 4.736039 1.484600 0.000000 -21.708201 11.419983 -1.766430 -2.519130 1.859202 -1.071235 -15.703743 0.712638 -3.451752 43.340828 0.735872 11.320033 5.642851 2.366100 0.000000 -71.563000
-12.220676 16.908430 -0.759932 2.821995 77.665153 25.455129 -8.739724 -1.152853 -0.431817 -11.161153 0.525344 -43.525897 -2.617127 0.049314 15.410369 0.705269 4.887935 4.154782 1.484800 0.000001 -21.449500 11.460149 -1.690527 -2.480652 1.841492 -0.596864 -16.897485 0.429516 -3.574446 45.381536 0.603410 11.052370 8.014336 2.802600 0.000000 -70.754700
-12.102361 16.942482 -0.782000 1.983188 77.479298 24.732321 -8.766433 -1.152980 -0.494289 -11.046461 0.576278 -42.981695 -2.594791 0.016768 15.247848 0.749144 5.086104 3.705231 1.478300 0.000000 -21.138900 11.482912 -1.606601 -2.439311 1.877889 -0.108666 -18.012928 0.172662 -3.670145 47.287156 0.459347 10.696232 10.218819 3.166600 0.000000 -69.364001
-11.984905 16.975466 -0.804311 1.142058 77.311027 23.976490 -8.800892 -1.151229 -0.566218 -10.950659 0.688031 -42.414987 -2.575487 -0.012381 15.050471 0.782577 5.237155 3.360726 1.468500 0.000000 -20.801501 11.494630 -1.517492 -2.401156 1.946627 0.353145 -19.051335 -0.055047 -3.745765 49.064924 0.309242 10.225425 12.175432 3.424100 -0.000000 -67.412699
-11.867742 17.007255 -0.826507 0.328076 77.166653 23.221278 -8.840229 -1.146838 -0.641899 -10.872212 0.837219 -41.836633 -2.558974 -0.038256 14.843176 0.807368 5.346553 3.080175 1.454300 -0.000000 -20.452600 11.497408 -1.426349 -2.369915 2.041962 0.764735 -20.016437 -0.253476 -3.806343 50.710333 0.156990 9.596315 13.814820 3.540300 0.000000 -65.167500
-11.750738 17.037687 -0.848105 -0.416096 77.052086 22.510150 -8.880765 -1.138855 -0.715038 -10.810370 0.992676 -41.247328 -2.544614 -0.062330 14.641569 0.826576 5.427856 2.822770 1.435500 -0.000000 -20.112699 11.494792 -1.335109 -2.349698 2.152239 1.101740 -20.917229 -0.425350 -3.857581 52.231523 0.004494 8.771566 15.088670 3.490000 -0.000000 -62.796100
-11.633748 17.066709 -0.868806 -1.070021 76.972014 21.867023 -8.919901 -1.127000 -0.779661 -10.761243 1.127335 -40.650567 -2.531652 -0.086017 14.458038 0.843032 5.492186 2.550516 1.411001 0.000000 -19.795800 11.488569 -1.244944 -2.342642 2.272189 1.350811 -21.765157 -0.574429 -3.903500 53.634157 -0.148536 7.719883 15.969986 3.259900 -0.000001 -60.513100
-11.516934 17.094222 -0.888314 -1.615326 76.929702 21.311068 -8.955450 -1.111278 -0.831929 -10.721876 1.218394 -40.040984 -2.519252 -0.111076 14.295333 0.859326 5.551484 2.236605 1.380700 -0.000000 -19.516500 11.480422 -1.156237 -2.350601 2.395678 1.505084 -22.569173 -0.704299 -3.947622 54.927130 -0.303705 6.425941 16.442084 2.852100 -0.000000 -58.382300
